Coordinates
version=1
nRows=9
nColumns=26
inDegrees=yes

Units are S.I. units (second, meters, Newtons, ...)
If the header above contains a line with 'inDegrees', this indicates whether rotational values are in degrees (yes) or radians (no).

endheader
time	pelvis_tilt	pelvis_list	pelvis_rotation	pelvis_tx	pelvis_ty	pelvis_tz	hip_flexion_r	hip_adduction_r	hip_rotation_r	knee_angle_r	knee_angle_r_beta	hip_flexion_l	hip_adduction_l	hip_rotation_l	knee_angle_l	knee_angle_l_beta	lumbar_extension	lumbar_bending	lumbar_rotation	ankle_angle_r	subtalar_angle_r	mtp_angle_r	ankle_angle_l	subtalar_angle_l	mtp_angle_l
      1.67500000	    -11.94007623	      0.61882830	     -5.98532846	      0.12247639	      0.65283899	     -0.33185503	     -1.32374778	     -4.74188699	     -0.39470271	     28.48372411	      0.49713477	     40.34551688	     -3.80317185	    -15.04163878	     13.67895043	      0.23874272	      1.09972328	      2.00586720	      8.32479310	      7.92455881	     -0.88125523	      0.00000000	      0.95262885	      0.22071107	      0.00000000
      1.68000000	    -11.89600069	      0.66838161	     -6.14813132	      0.13064500	      0.65261324	     -0.33211965	     -1.55489297	     -5.04402613	     -0.39666899	     29.07071372	      0.50737967	     40.02982612	     -3.70005928	    -14.65746542	     14.25223531	      0.24874843	      1.23436518	      1.86212613	      8.36703768	      6.36563672	     -0.62393673	      0.00000000	      0.02500385	      0.56836580	      0.00000000
      1.68500000	    -11.71207025	      0.55232032	     -6.30847476	      0.13903642	      0.65192063	     -0.33227070	     -1.31886382	     -5.40661132	     -1.16477801	     30.91731143	      0.53960888	     41.07761890	     -4.20087360	    -14.37799351	     17.94984835	      0.31328395	      1.25560552	      1.89202099	      8.39455133	      4.42407742	     -0.76137027	      0.00000000	     -0.34442473	     -0.63592084	      0.00000000
      1.69000000	    -11.56955654	      0.57776759	     -6.28859491	      0.14715805	      0.65179615	     -0.33240398	     -1.28622965	     -5.80841378	     -1.78146046	     32.17290432	      0.56152311	     40.78925521	     -4.13732908	    -14.37342110	     18.82650089	      0.32858443	      1.27782582	      1.66049862	      8.32031220	      2.35459583	     -0.90621585	      0.00000000	     -1.44970077	     -0.57365562	      0.00000000
      1.69500000	    -11.62719099	      0.70429153	     -6.41625888	      0.15508072	      0.65130399	     -0.33288142	     -0.67056253	     -6.40232483	     -2.21404290	     33.97698460	      0.59301025	     41.20277572	     -4.18682258	    -14.29751673	     20.68079280	      0.36094793	      1.50225366	      1.50576178	      8.24182765	      0.60291874	     -1.03906945	      0.00000000	     -2.18809261	     -0.90210731	      0.00000000
      1.70000000	    -11.58024053	      0.80007319	     -6.44033553	      0.16297505	      0.65106674	     -0.33319981	     -0.17914089	     -6.96627387	     -2.75081714	     35.72264841	      0.62347783	     41.28833823	     -4.18939534	    -14.30087715	     22.11131117	      0.38591518	      1.61209960	      1.29185633	      8.08780138	     -1.24885269	     -1.23203825	      0.00000000	     -2.94783605	     -1.10694168	      0.00000000
      1.70500000	    -11.50442633	      0.99290137	     -6.35320458	      0.17076175	      0.65099230	     -0.33359910	      0.34991796	     -7.65030541	     -3.35083115	     37.53137729	      0.65504611	     41.23870865	     -4.03241973	    -14.35604266	     23.32413424	      0.40708294	      1.66479818	      0.93953422	      7.84411147	     -3.06886052	     -1.59064047	      0.00000000	     -3.53738273	     -1.25038371	      0.00000000
      1.71000000	    -11.50962778	      1.16269395	     -6.30822613	      0.17835891	      0.65088968	     -0.33399112	      1.12379024	     -8.31063558	     -3.80922289	     39.53184053	      0.68996078	     41.30839305	     -3.95668969	    -14.42755367	     24.61023269	      0.42952959	      1.78122015	      0.65252812	      7.62742032	     -4.65308486	     -1.90844133	      0.00000000	     -3.98614486	     -1.45266081	      0.00000000
      1.71500000	    -11.31114714	      1.28902519	     -6.16313197	      0.18586556	      0.65121135	     -0.33441426	      1.66353934	     -8.93333618	     -4.31429854	     41.43859335	      0.72323989	     40.96486407	     -3.79166473	    -14.41064839	     25.50308176	      0.44511275	      1.60485216	      0.38170254	      7.29905860	     -6.17042196	     -2.35334416	      0.00000000	     -4.22518271	     -1.52756839	      0.00000000
